<?xml version="1.0" ?><!DOCTYPE svg  PUBLIC '-//W3C//DTD SVG 1.1//EN'  'http://www.w3.org/Graphics/SVG/1.1/DTD/svg11.dtd'><svg width="63.992px" height="63.992px" viewBox="0 -9.97 63.992 63.992" id="Layer_1" style="enable-background:new 0 0 63.992 44.061;" version="1.1" xml:space="preserve" xmlns="http://www.w3.org/2000/svg" xmlns:xlink="http://www.w3.org/1999/xlink"><g id="Wheels"><g><path d="M14.123,32.049c-3.313,0-5.998,2.689-5.998,6.006    s2.686,6.006,5.998,6.006c3.314,0,6-2.689,6-6.006S17.438,32.049,14.123,32.049z M50.119,32.049c-3.313,0-6,2.689-6,6.006    s2.687,6.006,6,6.006c3.313,0,5.999-2.689,5.999-6.006S53.432,32.049,50.119,32.049z" style="fill-rule:evenodd;clip-rule:evenodd;fill:#666666;"/></g></g><g id="Steering_Wheel"><g><path d="M31.529,6.493l-5.877-5.884c-0.812-0.812-2.127-0.812-2.938,0    c-0.812,0.813-0.812,2.13,0,2.941l1.47,1.472l-5.469,5.474c-0.812,0.813-0.812,2.13,0,2.942s2.127,0.813,2.938,0l5.468-5.476    l1.47,1.472c0.812,0.813,2.127,0.813,2.938,0S32.341,7.306,31.529,6.493z" style="fill-rule:evenodd;clip-rule:evenodd;fill:#666666;"/></g></g><g id="Shape"><g><path d="M54.118,12.029c0,0-7.714,4.004-13.998,8.008s-18.844,4.83-17.998-4.004    c0.847-8.834-5.999-6.006-5.999-6.006C1.958,13.663,4.125,32.049,4.125,32.049h55.992v-6.006    C60.117,9.162,54.118,12.029,54.118,12.029z" style="fill:#FF8833;"/></g></g><g id="Base"><g><path d="M59.992,30.047H4c-2.209,0-4,1.793-4,4.004s1.791,4.004,4,4.004h55.992c2.209,0,4-1.793,4-4.004    S62.201,30.047,59.992,30.047z" style="fill:#B3B3B3;"/></g></g><g/><g/><g/><g/><g/><g/><g/><g/><g/><g/><g/><g/><g/><g/><g/></svg>