<svg width="24px" height="24px" viewBox="0 0 24 24" fill="none" xmlns="http://www.w3.org/2000/svg">
<path d="M6.5 8C4.567 8 3 9.567 3 11.5C3 12.9158 3.84069 14.1353 5.05012 14.6865C5.0176 14.7851 5 14.8905 5 15V17C5 19.7614 7.23858 22 10 22H14C16.7614 22 19 19.7614 19 17V15C19 14.8905 18.9824 14.7851 18.9499 14.6865C20.1593 14.1353 21 12.9158 21 11.5C21 9.567 19.433 8 17.5 8H6.5Z" fill="#4296FF"/>
<path fill-rule="evenodd" clip-rule="evenodd" d="M12 3.05051C11.3647 2.40223 10.4793 2 9.5 2C7.567 2 6 3.567 6 5.5C6 7.433 7.567 9 9.5 9C10.0368 9 10.5454 8.87915 11 8.66318V14.7H5V16.7H11V22H13V16.7H19V14.7H13V8.66318C13.4546 8.87915 13.9632 9 14.5 9C16.433 9 18 7.433 18 5.5C18 3.567 16.433 2 14.5 2C13.5207 2 12.6353 2.40223 12 3.05051ZM9.5 4C8.67157 4 8 4.67157 8 5.5C8 6.32843 8.67157 7 9.5 7C10.3284 7 11 6.32843 11 5.5C11 4.67157 10.3284 4 9.5 4ZM13 5.5C13 6.32843 13.6716 7 14.5 7C15.3284 7 16 6.32843 16 5.5C16 4.67157 15.3284 4 14.5 4C13.6716 4 13 4.67157 13 5.5Z" fill="#152C70"/>
</svg>
